<mxfile host="app.diagrams.net" modified="2023-06-22T08:40:03.658Z" agent="Mozilla/5.0 (Windows NT 10.0; Win64; x64) AppleWebKit/537.36 (KHTML, like Gecko) Chrome/114.0.0.0 Safari/537.36" etag="mYxkly19yumuz9NIHWnb" version="21.5.0" type="device">
  <diagram name="Page-1" id="z5hRpRdzVhmgbTK2Sjfu">
    <mxGraphModel dx="1434" dy="788" grid="1" gridSize="10" guides="1" tooltips="1" connect="1" arrows="1" fold="1" page="1" pageScale="1" pageWidth="850" pageHeight="1100" math="0" shadow="0">
      <root>
        <mxCell id="0" />
        <mxCell id="1" parent="0" />
        <mxCell id="UVOvc8mO_HC3X-J6zmZd-1" value="" style="image;aspect=fixed;html=1;points=[];align=center;fontSize=12;image=img/lib/azure2/databases/SQL_Database.svg;" vertex="1" parent="1">
          <mxGeometry x="160" y="150" width="48" height="64" as="geometry" />
        </mxCell>
        <mxCell id="UVOvc8mO_HC3X-J6zmZd-2" value="" style="image;aspect=fixed;html=1;points=[];align=center;fontSize=12;image=img/lib/azure2/storage/Storage_Accounts.svg;" vertex="1" parent="1">
          <mxGeometry x="151.5" y="260" width="65" height="52" as="geometry" />
        </mxCell>
        <mxCell id="UVOvc8mO_HC3X-J6zmZd-3" value="&lt;font style=&quot;font-size: 14px;&quot;&gt;SQL Database&lt;/font&gt;" style="text;html=1;strokeColor=none;fillColor=none;align=center;verticalAlign=middle;whiteSpace=wrap;rounded=0;" vertex="1" parent="1">
          <mxGeometry x="130.5" y="210" width="107" height="30" as="geometry" />
        </mxCell>
        <mxCell id="UVOvc8mO_HC3X-J6zmZd-4" value="&lt;font style=&quot;font-size: 14px;&quot;&gt;Storage account&lt;/font&gt;" style="text;html=1;strokeColor=none;fillColor=none;align=center;verticalAlign=middle;whiteSpace=wrap;rounded=0;" vertex="1" parent="1">
          <mxGeometry x="104" y="312" width="160" height="30" as="geometry" />
        </mxCell>
        <mxCell id="UVOvc8mO_HC3X-J6zmZd-5" value="" style="image;sketch=0;aspect=fixed;html=1;points=[];align=center;fontSize=12;image=img/lib/mscae/App_Configuration.svg;" vertex="1" parent="1">
          <mxGeometry x="160" y="350" width="50" height="49" as="geometry" />
        </mxCell>
        <mxCell id="UVOvc8mO_HC3X-J6zmZd-6" value="&lt;font style=&quot;font-size: 14px;&quot;&gt;App Configuration&lt;/font&gt;" style="text;html=1;strokeColor=none;fillColor=none;align=center;verticalAlign=middle;whiteSpace=wrap;rounded=0;" vertex="1" parent="1">
          <mxGeometry x="99" y="399" width="170" height="30" as="geometry" />
        </mxCell>
        <mxCell id="UVOvc8mO_HC3X-J6zmZd-7" value="" style="image;aspect=fixed;html=1;points=[];align=center;fontSize=12;image=img/lib/azure2/analytics/Event_Hubs.svg;" vertex="1" parent="1">
          <mxGeometry x="306.5" y="153" width="67" height="60" as="geometry" />
        </mxCell>
        <mxCell id="UVOvc8mO_HC3X-J6zmZd-8" value="&lt;font style=&quot;font-size: 14px;&quot;&gt;Event Hub&lt;/font&gt;" style="text;html=1;strokeColor=none;fillColor=none;align=center;verticalAlign=middle;whiteSpace=wrap;rounded=0;" vertex="1" parent="1">
          <mxGeometry x="280" y="211" width="120" height="30" as="geometry" />
        </mxCell>
        <mxCell id="UVOvc8mO_HC3X-J6zmZd-9" value="" style="image;aspect=fixed;html=1;points=[];align=center;fontSize=12;image=img/lib/azure2/containers/Container_Registries.svg;" vertex="1" parent="1">
          <mxGeometry x="450" y="150" width="68" height="61" as="geometry" />
        </mxCell>
        <mxCell id="UVOvc8mO_HC3X-J6zmZd-10" value="&lt;font style=&quot;font-size: 14px;&quot;&gt;Container Registry&lt;/font&gt;" style="text;html=1;strokeColor=none;fillColor=none;align=center;verticalAlign=middle;whiteSpace=wrap;rounded=0;" vertex="1" parent="1">
          <mxGeometry x="419" y="210" width="130" height="30" as="geometry" />
        </mxCell>
        <mxCell id="UVOvc8mO_HC3X-J6zmZd-11" value="" style="image;aspect=fixed;html=1;points=[];align=center;fontSize=12;image=img/lib/azure2/other/Worker_Container_App.svg;" vertex="1" parent="1">
          <mxGeometry x="617.06" y="250" width="63.88" height="62" as="geometry" />
        </mxCell>
        <mxCell id="UVOvc8mO_HC3X-J6zmZd-12" value="" style="image;aspect=fixed;html=1;points=[];align=center;fontSize=12;image=img/lib/azure2/other/Container_App_Environments.svg;" vertex="1" parent="1">
          <mxGeometry x="620" y="150" width="58" height="58" as="geometry" />
        </mxCell>
        <mxCell id="UVOvc8mO_HC3X-J6zmZd-13" value="&lt;font style=&quot;font-size: 14px;&quot;&gt;Container App Environment&lt;/font&gt;" style="text;html=1;strokeColor=none;fillColor=none;align=center;verticalAlign=middle;whiteSpace=wrap;rounded=0;" vertex="1" parent="1">
          <mxGeometry x="559" y="210" width="180" height="30" as="geometry" />
        </mxCell>
        <mxCell id="UVOvc8mO_HC3X-J6zmZd-14" value="&lt;font style=&quot;font-size: 14px;&quot;&gt;Container App&lt;/font&gt;" style="text;html=1;strokeColor=none;fillColor=none;align=center;verticalAlign=middle;whiteSpace=wrap;rounded=0;" vertex="1" parent="1">
          <mxGeometry x="597.53" y="312" width="102.94" height="30" as="geometry" />
        </mxCell>
        <mxCell id="UVOvc8mO_HC3X-J6zmZd-18" value="&lt;font style=&quot;font-size: 14px;&quot;&gt;Storage&lt;/font&gt;" style="text;html=1;strokeColor=default;fillColor=none;align=center;verticalAlign=middle;whiteSpace=wrap;rounded=0;" vertex="1" parent="1">
          <mxGeometry x="264" y="76" width="105" height="30" as="geometry" />
        </mxCell>
        <mxCell id="UVOvc8mO_HC3X-J6zmZd-21" value="" style="rounded=0;whiteSpace=wrap;html=1;fillColor=none;strokeColor=#FF9999;" vertex="1" parent="1">
          <mxGeometry x="116.5" y="106" width="432" height="334" as="geometry" />
        </mxCell>
        <mxCell id="UVOvc8mO_HC3X-J6zmZd-22" value="" style="rounded=0;whiteSpace=wrap;html=1;fillColor=none;strokeColor=#99FF33;" vertex="1" parent="1">
          <mxGeometry x="280" y="140" width="120" height="130" as="geometry" />
        </mxCell>
        <mxCell id="UVOvc8mO_HC3X-J6zmZd-24" value="" style="rounded=0;whiteSpace=wrap;html=1;fillColor=none;strokeColor=#3333FF;" vertex="1" parent="1">
          <mxGeometry x="410" y="80" width="330" height="280" as="geometry" />
        </mxCell>
        <mxCell id="UVOvc8mO_HC3X-J6zmZd-20" value="&lt;font style=&quot;font-size: 14px;&quot;&gt;Events&lt;/font&gt;" style="text;html=1;strokeColor=default;fillColor=none;align=center;verticalAlign=middle;whiteSpace=wrap;rounded=0;" vertex="1" parent="1">
          <mxGeometry x="309" y="110" width="60" height="30" as="geometry" />
        </mxCell>
        <mxCell id="UVOvc8mO_HC3X-J6zmZd-25" value="&lt;font style=&quot;font-size: 14px;&quot;&gt;Deployment&lt;/font&gt;" style="text;html=1;strokeColor=default;fillColor=none;align=center;verticalAlign=middle;whiteSpace=wrap;rounded=0;" vertex="1" parent="1">
          <mxGeometry x="529.5" y="50" width="91" height="30" as="geometry" />
        </mxCell>
      </root>
    </mxGraphModel>
  </diagram>
</mxfile>
